<svg width="1260" height="128" viewBox="0 0 1260 128" fill="none" xmlns="http://www.w3.org/2000/svg">
<path d="M162.307 41.2008V78.0788H153.207V55.9625L144.852 78.0788H137.508L129.1 55.9099V78.0788H120V41.2008H130.75L141.233 66.7317L151.61 41.2008H162.307Z" fill="white"/>
<path d="M197.936 48.7655L179.311 92H169.519L176.331 77.0807L164.251 48.7655H174.415L181.28 67.0994L188.091 48.7655H197.936Z" fill="white"/>
<path d="M222.597 59.167C224.761 59.6223 226.499 60.6904 227.812 62.3715C229.124 64.0175 229.781 65.9087 229.781 68.045C229.781 71.127 228.681 73.5785 226.481 75.3996C224.317 77.1857 221.284 78.0788 217.381 78.0788H199.98V41.2008H216.796C220.592 41.2008 223.554 42.0588 225.683 43.7749C227.847 45.4909 228.929 47.8199 228.929 50.7617C228.929 52.9331 228.344 54.7367 227.173 56.1726C226.038 57.6085 224.512 58.6066 222.597 59.167ZM209.08 56.1201H215.04C216.53 56.1201 217.665 55.8049 218.446 55.1745C219.262 54.5091 219.67 53.546 219.67 52.2852C219.67 51.0244 219.262 50.0613 218.446 49.3959C217.665 48.7305 216.53 48.3978 215.04 48.3978H209.08V56.1201ZM215.785 70.8293C217.31 70.8293 218.481 70.4966 219.297 69.8311C220.149 69.1307 220.574 68.1326 220.574 66.8368C220.574 65.541 220.131 64.5253 219.244 63.7899C218.393 63.0544 217.204 62.6867 215.679 62.6867H209.08V70.8293H215.785Z" fill="white"/>
<path d="M238.388 45.7186C236.792 45.7186 235.479 45.2633 234.45 44.3527C233.457 43.4071 232.96 42.2514 232.96 40.8856C232.96 39.4847 233.457 38.329 234.45 37.4184C235.479 36.4728 236.792 36 238.388 36C239.949 36 241.226 36.4728 242.22 37.4184C243.248 38.329 243.763 39.4847 243.763 40.8856C243.763 42.2514 243.248 43.4071 242.22 44.3527C241.226 45.2633 239.949 45.7186 238.388 45.7186ZM242.911 48.7655V78.0788H233.811V48.7655H242.911Z" fill="white"/>
<path d="M269.918 78.0788L257.359 61.7936V78.0788H248.259V41.2008H257.359V57.3809L269.811 41.2008H280.508L266.033 59.272L281.04 78.0788H269.918Z" fill="white"/>
<path d="M293.217 48.3978V55.8574H305.404V62.7917H293.217V70.8818H307V78.0788H284.117V41.2008H307V48.3978H293.217Z" fill="white"/>
<path d="M892.898 64.724H890.81V66.86H888.866V64.724H886.778V62.888H888.866V60.74H890.81V62.888H892.898V64.724ZM895.929 61.148V59.24H899.253V68H897.117V61.148H895.929ZM907.128 66.356C907.4 66.14 907.524 66.04 907.5 66.056C908.284 65.408 908.9 64.876 909.348 64.46C909.804 64.044 910.188 63.608 910.5 63.152C910.812 62.696 910.968 62.252 910.968 61.82C910.968 61.492 910.892 61.236 910.74 61.052C910.588 60.868 910.36 60.776 910.056 60.776C909.752 60.776 909.512 60.892 909.336 61.124C909.168 61.348 909.084 61.668 909.084 62.084H907.104C907.12 61.404 907.264 60.836 907.536 60.38C907.816 59.924 908.18 59.588 908.628 59.372C909.084 59.156 909.588 59.048 910.14 59.048C911.092 59.048 911.808 59.292 912.288 59.78C912.776 60.268 913.02 60.904 913.02 61.688C913.02 62.544 912.728 63.34 912.144 64.076C911.56 64.804 910.816 65.516 909.912 66.212H913.152V67.88H907.128V66.356ZM916.128 61.712C916.16 60.856 916.44 60.196 916.968 59.732C917.496 59.268 918.212 59.036 919.116 59.036C919.716 59.036 920.228 59.14 920.652 59.348C921.084 59.556 921.408 59.84 921.624 60.2C921.848 60.56 921.96 60.964 921.96 61.412C921.96 61.94 921.828 62.372 921.564 62.708C921.3 63.036 920.992 63.26 920.64 63.38V63.428C921.096 63.58 921.456 63.832 921.72 64.184C921.984 64.536 922.116 64.988 922.116 65.54C922.116 66.036 922 66.476 921.768 66.86C921.544 67.236 921.212 67.532 920.772 67.748C920.34 67.964 919.824 68.072 919.224 68.072C918.264 68.072 917.496 67.836 916.92 67.364C916.352 66.892 916.052 66.18 916.02 65.228H918.012C918.02 65.58 918.12 65.86 918.312 66.068C918.504 66.268 918.784 66.368 919.152 66.368C919.464 66.368 919.704 66.28 919.872 66.104C920.048 65.92 920.136 65.68 920.136 65.384C920.136 65 920.012 64.724 919.764 64.556C919.524 64.38 919.136 64.292 918.6 64.292H918.216V62.624H918.6C919.008 62.624 919.336 62.556 919.584 62.42C919.84 62.276 919.968 62.024 919.968 61.664C919.968 61.376 919.888 61.152 919.728 60.992C919.568 60.832 919.348 60.752 919.068 60.752C918.764 60.752 918.536 60.844 918.384 61.028C918.24 61.212 918.156 61.44 918.132 61.712H916.128ZM925.369 66.44V64.784L929.161 59.36H931.453V64.664H932.437V66.44H931.453V68H929.401V66.44H925.369ZM929.545 61.616L927.529 64.664H929.545V61.616ZM946.153 61.028H942.409V62.684C942.569 62.508 942.793 62.364 943.081 62.252C943.369 62.14 943.681 62.084 944.017 62.084C944.617 62.084 945.113 62.22 945.505 62.492C945.905 62.764 946.197 63.116 946.381 63.548C946.565 63.98 946.657 64.448 946.657 64.952C946.657 65.888 946.393 66.632 945.865 67.184C945.337 67.728 944.593 68 943.633 68C942.993 68 942.437 67.892 941.965 67.676C941.493 67.452 941.129 67.144 940.873 66.752C940.617 66.36 940.477 65.908 940.453 65.396H942.457C942.505 65.644 942.621 65.852 942.805 66.02C942.989 66.18 943.241 66.26 943.561 66.26C943.937 66.26 944.217 66.14 944.401 65.9C944.585 65.66 944.677 65.34 944.677 64.94C944.677 64.548 944.581 64.248 944.389 64.04C944.197 63.832 943.917 63.728 943.549 63.728C943.277 63.728 943.053 63.796 942.877 63.932C942.701 64.06 942.585 64.232 942.529 64.448H940.549V59.228H946.153V61.028ZM955.958 61.028H952.214V62.684C952.374 62.508 952.598 62.364 952.886 62.252C953.174 62.14 953.486 62.084 953.822 62.084C954.422 62.084 954.918 62.22 955.31 62.492C955.71 62.764 956.002 63.116 956.186 63.548C956.37 63.98 956.462 64.448 956.462 64.952C956.462 65.888 956.198 66.632 955.67 67.184C955.142 67.728 954.398 68 953.438 68C952.798 68 952.242 67.892 951.77 67.676C951.298 67.452 950.934 67.144 950.678 66.752C950.422 66.36 950.282 65.908 950.258 65.396H952.262C952.31 65.644 952.426 65.852 952.61 66.02C952.794 66.18 953.046 66.26 953.366 66.26C953.742 66.26 954.022 66.14 954.206 65.9C954.39 65.66 954.482 65.34 954.482 64.94C954.482 64.548 954.386 64.248 954.194 64.04C954.002 63.832 953.722 63.728 953.354 63.728C953.082 63.728 952.858 63.796 952.682 63.932C952.506 64.06 952.39 64.232 952.334 64.448H950.354V59.228H955.958V61.028ZM965.763 61.028H962.019V62.684C962.179 62.508 962.403 62.364 962.691 62.252C962.979 62.14 963.291 62.084 963.627 62.084C964.227 62.084 964.723 62.22 965.115 62.492C965.515 62.764 965.807 63.116 965.991 63.548C966.175 63.98 966.267 64.448 966.267 64.952C966.267 65.888 966.003 66.632 965.475 67.184C964.947 67.728 964.203 68 963.243 68C962.603 68 962.047 67.892 961.575 67.676C961.103 67.452 960.739 67.144 960.483 66.752C960.227 66.36 960.087 65.908 960.063 65.396H962.067C962.115 65.644 962.231 65.852 962.415 66.02C962.599 66.18 962.851 66.26 963.171 66.26C963.547 66.26 963.827 66.14 964.011 65.9C964.195 65.66 964.287 65.34 964.287 64.94C964.287 64.548 964.191 64.248 963.999 64.04C963.807 63.832 963.527 63.728 963.159 63.728C962.887 63.728 962.663 63.796 962.487 63.932C962.311 64.06 962.195 64.232 962.139 64.448H960.159V59.228H965.763V61.028ZM974.763 62.936V64.64H969.483V62.936H974.763ZM984.528 61.028H980.784V62.684C980.944 62.508 981.168 62.364 981.456 62.252C981.744 62.14 982.056 62.084 982.392 62.084C982.992 62.084 983.488 62.22 983.88 62.492C984.28 62.764 984.572 63.116 984.756 63.548C984.94 63.98 985.032 64.448 985.032 64.952C985.032 65.888 984.768 66.632 984.24 67.184C983.712 67.728 982.968 68 982.008 68C981.368 68 980.812 67.892 980.34 67.676C979.868 67.452 979.504 67.144 979.248 66.752C978.992 66.36 978.852 65.908 978.828 65.396H980.832C980.88 65.644 980.996 65.852 981.18 66.02C981.364 66.18 981.616 66.26 981.936 66.26C982.312 66.26 982.592 66.14 982.776 65.9C982.96 65.66 983.052 65.34 983.052 64.94C983.052 64.548 982.956 64.248 982.764 64.04C982.572 63.832 982.292 63.728 981.924 63.728C981.652 63.728 981.428 63.796 981.252 63.932C981.076 64.06 980.96 64.232 980.904 64.448H978.924V59.228H984.528V61.028ZM994.333 61.028H990.589V62.684C990.749 62.508 990.973 62.364 991.261 62.252C991.549 62.14 991.861 62.084 992.197 62.084C992.797 62.084 993.293 62.22 993.685 62.492C994.085 62.764 994.377 63.116 994.561 63.548C994.745 63.98 994.837 64.448 994.837 64.952C994.837 65.888 994.573 66.632 994.045 67.184C993.517 67.728 992.773 68 991.813 68C991.173 68 990.617 67.892 990.145 67.676C989.673 67.452 989.309 67.144 989.053 66.752C988.797 66.36 988.657 65.908 988.633 65.396H990.637C990.685 65.644 990.801 65.852 990.985 66.02C991.169 66.18 991.421 66.26 991.741 66.26C992.117 66.26 992.397 66.14 992.581 65.9C992.765 65.66 992.857 65.34 992.857 64.94C992.857 64.548 992.761 64.248 992.569 64.04C992.377 63.832 992.097 63.728 991.729 63.728C991.457 63.728 991.233 63.796 991.057 63.932C990.881 64.06 990.765 64.232 990.709 64.448H988.729V59.228H994.333V61.028ZM1003.33 62.936V64.64H998.054V62.936H1003.33ZM1013.1 61.028H1009.35V62.684C1009.51 62.508 1009.74 62.364 1010.03 62.252C1010.31 62.14 1010.63 62.084 1010.96 62.084C1011.56 62.084 1012.06 62.22 1012.45 62.492C1012.85 62.764 1013.14 63.116 1013.33 63.548C1013.51 63.98 1013.6 64.448 1013.6 64.952C1013.6 65.888 1013.34 66.632 1012.81 67.184C1012.28 67.728 1011.54 68 1010.58 68C1009.94 68 1009.38 67.892 1008.91 67.676C1008.44 67.452 1008.07 67.144 1007.82 66.752C1007.56 66.36 1007.42 65.908 1007.4 65.396H1009.4C1009.45 65.644 1009.57 65.852 1009.75 66.02C1009.93 66.18 1010.19 66.26 1010.51 66.26C1010.88 66.26 1011.16 66.14 1011.35 65.9C1011.53 65.66 1011.62 65.34 1011.62 64.94C1011.62 64.548 1011.53 64.248 1011.33 64.04C1011.14 63.832 1010.86 63.728 1010.49 63.728C1010.22 63.728 1010 63.796 1009.82 63.932C1009.65 64.06 1009.53 64.232 1009.47 64.448H1007.49V59.228H1013.1V61.028ZM1022.9 61.028H1019.16V62.684C1019.32 62.508 1019.54 62.364 1019.83 62.252C1020.12 62.14 1020.43 62.084 1020.77 62.084C1021.37 62.084 1021.86 62.22 1022.26 62.492C1022.66 62.764 1022.95 63.116 1023.13 63.548C1023.32 63.98 1023.41 64.448 1023.41 64.952C1023.41 65.888 1023.14 66.632 1022.62 67.184C1022.09 67.728 1021.34 68 1020.38 68C1019.74 68 1019.19 67.892 1018.72 67.676C1018.24 67.452 1017.88 67.144 1017.62 66.752C1017.37 66.36 1017.23 65.908 1017.2 65.396H1019.21C1019.26 65.644 1019.37 65.852 1019.56 66.02C1019.74 66.18 1019.99 66.26 1020.31 66.26C1020.69 66.26 1020.97 66.14 1021.15 65.9C1021.34 65.66 1021.43 65.34 1021.43 64.94C1021.43 64.548 1021.33 64.248 1021.14 64.04C1020.95 63.832 1020.67 63.728 1020.3 63.728C1020.03 63.728 1019.8 63.796 1019.63 63.932C1019.45 64.06 1019.34 64.232 1019.28 64.448H1017.3V59.228H1022.9V61.028Z" fill="white"/>
<g clip-path="url(#clip0_41317_189)">
<path d="M1070.68 68.5067C1069.04 68.5067 1067.45 68.24 1065.97 67.76C1065.51 67.6 1064.99 67.72 1064.63 68.08L1062.53 70.7067C1058.76 68.9067 1055.23 65.5067 1053.35 61.6L1055.95 59.3867C1056.31 59.0133 1056.41 58.4933 1056.27 58.0267C1055.77 56.5467 1055.52 54.96 1055.52 53.32C1055.52 52.6 1054.92 52 1054.2 52H1049.59C1048.87 52 1048 52.32 1048 53.32C1048 65.7067 1058.31 76 1070.68 76C1071.63 76 1072 75.16 1072 74.4267V69.8267C1072 69.1067 1071.4 68.5067 1070.68 68.5067Z" fill="white"/>
</g>
<g clip-path="url(#clip1_41317_189)">
<path d="M1112 70.6667C1112 71.403 1112.6 72 1113.33 72H1134.67C1135.4 72 1136 71.403 1136 70.6667C1136 69.9303 1135.4 69.3333 1134.67 69.3333H1113.33C1112.6 69.3333 1112 69.9303 1112 70.6667ZM1112 64C1112 64.7364 1112.6 65.3333 1113.33 65.3333H1134.67C1135.4 65.3333 1136 64.7364 1136 64C1136 63.2636 1135.4 62.6667 1134.67 62.6667H1113.33C1112.6 62.6667 1112 63.2636 1112 64ZM1113.33 56C1112.6 56 1112 56.597 1112 57.3333C1112 58.0697 1112.6 58.6667 1113.33 58.6667H1134.67C1135.4 58.6667 1136 58.0697 1136 57.3333C1136 56.597 1135.4 56 1134.67 56H1113.33Z" fill="white"/>
</g>
<defs>
<clipPath id="clip0_41317_189">
<rect width="32" height="32" fill="white" transform="translate(1044 48)"/>
</clipPath>
<clipPath id="clip1_41317_189">
<rect width="32" height="32" fill="white" transform="translate(1108 48)"/>
</clipPath>
</defs>
</svg>
