<svg width="1260" height="128" viewBox="0 0 1260 128" fill="none" xmlns="http://www.w3.org/2000/svg">
<path d="M162.307 41.2008V78.0788H153.207V55.9625L144.852 78.0788H137.508L129.1 55.9099V78.0788H120V41.2008H130.75L141.233 66.7317L151.61 41.2008H162.307Z" fill="white"/>
<path d="M197.936 48.7655L179.311 92H169.519L176.331 77.0807L164.251 48.7655H174.415L181.28 67.0994L188.091 48.7655H197.936Z" fill="white"/>
<path d="M222.597 59.167C224.761 59.6223 226.499 60.6904 227.812 62.3715C229.124 64.0175 229.781 65.9087 229.781 68.045C229.781 71.127 228.681 73.5785 226.481 75.3996C224.317 77.1857 221.284 78.0788 217.381 78.0788H199.98V41.2008H216.796C220.592 41.2008 223.554 42.0588 225.683 43.7749C227.847 45.4909 228.929 47.8199 228.929 50.7617C228.929 52.9331 228.344 54.7367 227.173 56.1726C226.038 57.6085 224.512 58.6066 222.597 59.167ZM209.08 56.1201H215.04C216.53 56.1201 217.665 55.8049 218.446 55.1745C219.262 54.5091 219.67 53.546 219.67 52.2852C219.67 51.0244 219.262 50.0613 218.446 49.3959C217.665 48.7305 216.53 48.3978 215.04 48.3978H209.08V56.1201ZM215.785 70.8293C217.31 70.8293 218.481 70.4966 219.297 69.8311C220.149 69.1307 220.574 68.1326 220.574 66.8368C220.574 65.541 220.131 64.5253 219.244 63.7899C218.393 63.0544 217.204 62.6867 215.679 62.6867H209.08V70.8293H215.785Z" fill="white"/>
<path d="M238.388 45.7186C236.792 45.7186 235.479 45.2633 234.45 44.3527C233.457 43.4071 232.96 42.2514 232.96 40.8856C232.96 39.4847 233.457 38.329 234.45 37.4184C235.479 36.4728 236.792 36 238.388 36C239.949 36 241.226 36.4728 242.22 37.4184C243.248 38.329 243.763 39.4847 243.763 40.8856C243.763 42.2514 243.248 43.4071 242.22 44.3527C241.226 45.2633 239.949 45.7186 238.388 45.7186ZM242.911 48.7655V78.0788H233.811V48.7655H242.911Z" fill="white"/>
<path d="M269.918 78.0788L257.359 61.7936V78.0788H248.259V41.2008H257.359V57.3809L269.811 41.2008H280.508L266.033 59.272L281.04 78.0788H269.918Z" fill="white"/>
<path d="M293.217 48.3978V55.8574H305.404V62.7917H293.217V70.8818H307V78.0788H284.117V41.2008H307V48.3978H293.217Z" fill="white"/>
<g clip-path="url(#clip0_41317_167)">
<path d="M1070.68 68.5067C1069.04 68.5067 1067.45 68.24 1065.97 67.76C1065.51 67.6 1064.99 67.72 1064.63 68.08L1062.53 70.7067C1058.76 68.9067 1055.23 65.5067 1053.35 61.6L1055.95 59.3867C1056.31 59.0133 1056.41 58.4933 1056.27 58.0267C1055.77 56.5467 1055.52 54.96 1055.52 53.32C1055.52 52.6 1054.92 52 1054.2 52H1049.59C1048.87 52 1048 52.32 1048 53.32C1048 65.7067 1058.31 76 1070.68 76C1071.63 76 1072 75.16 1072 74.4267V69.8267C1072 69.1067 1071.4 68.5067 1070.68 68.5067Z" fill="white"/>
</g>
<g clip-path="url(#clip1_41317_167)">
<path d="M1112 70.6667C1112 71.403 1112.6 72 1113.33 72H1134.67C1135.4 72 1136 71.403 1136 70.6667C1136 69.9303 1135.4 69.3333 1134.67 69.3333H1113.33C1112.6 69.3333 1112 69.9303 1112 70.6667ZM1112 64C1112 64.7364 1112.6 65.3333 1113.33 65.3333H1134.67C1135.4 65.3333 1136 64.7364 1136 64C1136 63.2636 1135.4 62.6667 1134.67 62.6667H1113.33C1112.6 62.6667 1112 63.2636 1112 64ZM1113.33 56C1112.6 56 1112 56.597 1112 57.3333C1112 58.0697 1112.6 58.6667 1113.33 58.6667H1134.67C1135.4 58.6667 1136 58.0697 1136 57.3333C1136 56.597 1135.4 56 1134.67 56H1113.33Z" fill="white"/>
</g>
<defs>
<clipPath id="clip0_41317_167">
<rect width="32" height="32" fill="white" transform="translate(1044 48)"/>
</clipPath>
<clipPath id="clip1_41317_167">
<rect width="32" height="32" fill="white" transform="translate(1108 48)"/>
</clipPath>
</defs>
</svg>
